<svg width="501" height="96" viewBox="0 0 501 96" fill="none" xmlns="http://www.w3.org/2000/svg">
    <path d="M5.5307 11.5221C4.82519 11.6338 4.18271 11.9936 3.7188 12.5368C3.25489 13.08 3.00001 13.7708 3 14.4851V90C3 90.7956 3.31607 91.5587 3.87868 92.1213C4.44129 92.6839 5.20435 93 6 93H33.3237C33.8351 93 34.338 92.8693 34.7846 92.6203C35.2312 92.3713 35.6068 92.0122 35.8757 91.5773C42.0115 81.6494 48.1473 71.7214 54.2831 61.7935C54.6384 61.2186 54.7892 60.5406 54.711 59.8693C54.6328 59.1981 54.3303 58.5728 53.8524 58.095L8.12128 12.3638C7.78651 12.0291 7.37728 11.7783 6.92703 11.632C6.47678 11.4857 5.9983 11.448 5.5307 11.5221V11.5221Z"
          fill="#9E2AC5"/>
    <path d="M89.7557 44.4403C89.283 44.4789 88.8262 44.6291 88.4227 44.8784C79.6529 50.2985 70.8831 55.7185 62.1132 61.1386C61.7171 61.3834 61.3834 61.7171 61.1386 62.1132C55.7185 70.8831 50.2985 79.6529 44.8784 88.4227C44.5975 88.8772 44.4431 89.3984 44.4311 89.9325C44.4191 90.4666 44.5499 90.9943 44.81 91.4609C45.0702 91.9275 45.4502 92.3162 45.9109 92.5868C46.3716 92.8574 46.8961 93 47.4304 93H90C90.7957 93 91.5587 92.6839 92.1213 92.1213C92.6839 91.5587 93 90.7957 93 90V47.4304C93 47.0158 92.9141 46.6058 92.7477 46.2261C92.5813 45.8464 92.338 45.5053 92.0332 45.2243C91.7283 44.9434 91.3686 44.7287 90.9766 44.5937C90.5846 44.4588 90.1689 44.4065 89.7557 44.4403V44.4403Z"
          fill="#421A7E"/>
    <path d="M14.4851 3C13.8918 3.00002 13.3117 3.17597 12.8184 3.50562C12.3251 3.83526 11.9406 4.30379 11.7135 4.85196C11.4865 5.40013 11.4271 6.00332 11.5428 6.58525C11.6586 7.16718 11.9443 7.70172 12.3638 8.12128L58.0948 53.8522C58.5726 54.3301 59.1979 54.6327 59.8691 54.7108C60.5404 54.789 61.2184 54.6382 61.7933 54.2829C71.7213 48.1471 81.6493 42.0113 91.5772 35.8755C92.0122 35.6066 92.3713 35.2311 92.6203 34.7844C92.8693 34.3378 93 33.8349 93 33.3235V6C93 5.20435 92.6839 4.44129 92.1213 3.87868C91.5587 3.31607 90.7956 3 90 3H14.4851Z"
          fill="#E359BF"/>
    <path d="M174.72 48.88C174.72 50.48 174.613 51.92 174.4 53.2H142C142.267 56.4 143.387 58.9067 145.36 60.72C147.333 62.5333 149.76 63.44 152.64 63.44C156.8 63.44 159.76 61.6533 161.52 58.08H173.6C172.32 62.3467 169.867 65.8667 166.24 68.64C162.613 71.36 158.16 72.72 152.88 72.72C148.613 72.72 144.773 71.7867 141.36 69.92C138 68 135.36 65.3067 133.44 61.84C131.573 58.3733 130.64 54.3733 130.64 49.84C130.64 45.2533 131.573 41.2267 133.44 37.76C135.307 34.2933 137.92 31.6267 141.28 29.76C144.64 27.8933 148.507 26.96 152.88 26.96C157.093 26.96 160.853 27.8667 164.16 29.68C167.52 31.4933 170.107 34.08 171.92 37.44C173.787 40.7467 174.72 44.56 174.72 48.88ZM163.12 45.68C163.067 42.8 162.027 40.5067 160 38.8C157.973 37.04 155.493 36.16 152.56 36.16C149.787 36.16 147.44 37.0133 145.52 38.72C143.653 40.3733 142.507 42.6933 142.08 45.68H163.12ZM224.735 27.68V72H213.455V66.4C212.015 68.32 210.122 69.84 207.775 70.96C205.482 72.0267 202.975 72.56 200.255 72.56C196.788 72.56 193.722 71.84 191.055 70.4C188.388 68.9067 186.282 66.7467 184.735 63.92C183.242 61.04 182.495 57.6267 182.495 53.68V27.68H193.695V52.08C193.695 55.6 194.575 58.32 196.335 60.24C198.095 62.1067 200.495 63.04 203.535 63.04C206.628 63.04 209.055 62.1067 210.815 60.24C212.575 58.32 213.455 55.6 213.455 52.08V27.68H224.735ZM246.986 34.56C248.426 32.2133 250.292 30.3733 252.586 29.04C254.932 27.7067 257.599 27.04 260.586 27.04V38.8H257.626C254.106 38.8 251.439 39.6267 249.626 41.28C247.866 42.9333 246.986 45.8133 246.986 49.92V72H235.786V27.68H246.986V34.56ZM310.529 27.68L283.089 92.96H271.169L280.769 70.88L263.009 27.68H275.569L287.009 58.64L298.609 27.68H310.529ZM313.687 49.68C313.687 45.2 314.567 41.2267 316.327 37.76C318.14 34.2933 320.594 31.6267 323.687 29.76C326.78 27.8933 330.22 26.96 334.007 26.96C336.887 26.96 339.634 27.6 342.247 28.88C344.86 30.1067 346.94 31.76 348.487 33.84V12.8H359.847V72H348.487V65.44C347.1 67.6267 345.154 69.3867 342.647 70.72C340.14 72.0533 337.234 72.72 333.927 72.72C330.194 72.72 326.78 71.76 323.687 69.84C320.594 67.92 318.14 65.2267 316.327 61.76C314.567 58.24 313.687 54.2133 313.687 49.68ZM348.567 49.84C348.567 47.12 348.034 44.8 346.967 42.88C345.9 40.9067 344.46 39.4133 342.647 38.4C340.834 37.3333 338.887 36.8 336.807 36.8C334.727 36.8 332.807 37.3067 331.047 38.32C329.287 39.3333 327.847 40.8267 326.727 42.8C325.66 44.72 325.127 47.0133 325.127 49.68C325.127 52.3467 325.66 54.6933 326.727 56.72C327.847 58.6933 329.287 60.2133 331.047 61.28C332.86 62.3467 334.78 62.88 336.807 62.88C338.887 62.88 340.834 62.3733 342.647 61.36C344.46 60.2933 345.9 58.8 346.967 56.88C348.034 54.9067 348.567 52.56 348.567 49.84ZM376.466 22.4C374.492 22.4 372.839 21.7867 371.506 20.56C370.226 19.28 369.586 17.7067 369.586 15.84C369.586 13.9733 370.226 12.4267 371.506 11.2C372.839 9.92 374.492 9.28 376.466 9.28C378.439 9.28 380.066 9.92 381.346 11.2C382.679 12.4267 383.346 13.9733 383.346 15.84C383.346 17.7067 382.679 19.28 381.346 20.56C380.066 21.7867 378.439 22.4 376.466 22.4ZM381.986 27.68V72H370.786V27.68H381.986ZM390.171 49.84C390.171 45.2533 391.105 41.2533 392.971 37.84C394.838 34.3733 397.425 31.7067 400.731 29.84C404.038 27.92 407.825 26.96 412.091 26.96C417.585 26.96 422.118 28.3467 425.691 31.12C429.318 33.84 431.745 37.68 432.971 42.64H420.891C420.251 40.72 419.158 39.2267 417.611 38.16C416.118 37.04 414.251 36.48 412.011 36.48C408.811 36.48 406.278 37.6533 404.411 40C402.545 42.2933 401.611 45.5733 401.611 49.84C401.611 54.0533 402.545 57.3333 404.411 59.68C406.278 61.9733 408.811 63.12 412.011 63.12C416.545 63.12 419.505 61.0933 420.891 57.04H432.971C431.745 61.84 429.318 65.6533 425.691 68.48C422.065 71.3067 417.531 72.72 412.091 72.72C407.825 72.72 404.038 71.7867 400.731 69.92C397.425 68 394.838 65.3333 392.971 61.92C391.105 58.4533 390.171 54.4267 390.171 49.84ZM482.376 48.88C482.376 50.48 482.27 51.92 482.056 53.2H449.656C449.923 56.4 451.043 58.9067 453.016 60.72C454.99 62.5333 457.416 63.44 460.296 63.44C464.456 63.44 467.416 61.6533 469.176 58.08H481.256C479.976 62.3467 477.523 65.8667 473.896 68.64C470.27 71.36 465.816 72.72 460.536 72.72C456.27 72.72 452.43 71.7867 449.016 69.92C445.656 68 443.016 65.3067 441.096 61.84C439.23 58.3733 438.296 54.3733 438.296 49.84C438.296 45.2533 439.23 41.2267 441.096 37.76C442.963 34.2933 445.576 31.6267 448.936 29.76C452.296 27.8933 456.163 26.96 460.536 26.96C464.75 26.96 468.51 27.8667 471.816 29.68C475.176 31.4933 477.763 34.08 479.576 37.44C481.443 40.7467 482.376 44.56 482.376 48.88ZM470.776 45.68C470.723 42.8 469.683 40.5067 467.656 38.8C465.63 37.04 463.15 36.16 460.216 36.16C457.443 36.16 455.096 37.0133 453.176 38.72C451.31 40.3733 450.163 42.6933 449.736 45.68H470.776Z"
          fill="white"/>
</svg>
